# xmcd
#
# Track frame offsets:
#	150
#	17272
#	28562
#	45202
#	55232
#	67900
#	84775
#	94410
#	111777
#	127585
#	145665
#	161052
#	178557
#	192647
#	204585
#
# Disc length: 2949 seconds
#
# Revision: 1
# Processed by: cddbd v1.4PL0 Copyright (c) Steve Scherf et al.
# Submitted via: EasyCDDAExtractor 5.0.6
#
DISCID=b60b830f
DTITLE=Del Rey - X-Rey Guitar
DYEAR=2000
DGENRE=Blues
TTITLE0=Let Me Sleep
TTITLE1=A Bungalow In Bangalow
TTITLE2=Memphis Minnie
TTITLE3=Let's Go To Town
TTITLE4=Charleston Mad
TTITLE5=Avram Is Always Right
TTITLE6=Chartreuse
TTITLE7=Space Needle
TTITLE8=Crazy Blues
TTITLE9=This Is A New World
TTITLE10=Only The Blues
TTITLE11=Balmain to Newtown
TTITLE12=Sweet To Mama
TTITLE13=Dress Me
TTITLE14=On The Wall
EXTD=
EXTT0=
EXTT1=
EXTT2=
EXTT3=
EXTT4=
EXTT5=
EXTT6=
EXTT7=
EXTT8=
EXTT9=
EXTT10=
EXTT11=
EXTT12=
EXTT13=
EXTT14=
PLAYORDER=
